<svg xmlns="http://www.w3.org/2000/svg" viewBox="0 0 80 80" shape-rendering="crispEdges">
  <circle cx="40" cy="40" r="38" fill="#0E0E0E"/>
  <circle cx="40" cy="40" r="33" fill="none" stroke="#F9F6F0" stroke-width="1" opacity="0.25"/>
  <g fill="#F9F6F0" opacity="0.55">
    <rect x="39" y="3" width="2" height="4"/>
    <rect x="39" y="73" width="2" height="4"/>
    <rect x="3" y="39" width="4" height="2"/>
    <rect x="73" y="39" width="4" height="2"/>
  </g>
  <g>
    <rect x="31" y="29" width="18" height="3" fill="#F9F6F0"/>
    <rect x="29" y="31" width="22" height="3" fill="#F9F6F0"/>
    <rect x="29" y="34" width="22" height="12" fill="#BBBBBB"/>
    <rect x="33" y="38" width="3" height="2" fill="#0E0E0E"/>
    <rect x="44" y="38" width="3" height="2" fill="#0E0E0E"/>
    <rect x="36" y="43" width="8" height="1" fill="#0E0E0E"/>
    <rect x="31" y="46" width="18" height="2" fill="#BBBBBB"/>
    <rect x="33" y="48" width="14" height="2" fill="#BBBBBB"/>
    <rect x="24" y="50" width="32" height="7" fill="#D7FF3A"/>
    <rect x="28" y="48" width="24" height="2" fill="#D7FF3A"/>
  </g>
  <rect x="32" y="59" width="16" height="7" fill="#F9F6F0"/>
  <text x="40" y="65" text-anchor="middle" font-family="'Space Grotesk', Arial, sans-serif" font-size="5.5" font-weight="700" fill="#0E0E0E" letter-spacing="-0.3">1969</text>
</svg>
