<svg xmlns="http://www.w3.org/2000/svg" viewBox="0 0 960 540" width="960" height="540" font-family="Inter, system-ui, sans-serif">
  <!-- BACKGROUND -->
  <rect width="960" height="540" fill="#F9F6F0"/>

  <!-- subtle grid texture for "document" feel -->
  <g opacity="0.06">
    <line x1="0" y1="135" x2="960" y2="135" stroke="#0E0E0E" stroke-width="1"/>
    <line x1="0" y1="270" x2="960" y2="270" stroke="#0E0E0E" stroke-width="1"/>
    <line x1="0" y1="405" x2="960" y2="405" stroke="#0E0E0E" stroke-width="1"/>
    <line x1="240" y1="0" x2="240" y2="540" stroke="#0E0E0E" stroke-width="1"/>
    <line x1="480" y1="0" x2="480" y2="540" stroke="#0E0E0E" stroke-width="1"/>
    <line x1="720" y1="0" x2="720" y2="540" stroke="#0E0E0E" stroke-width="1"/>
  </g>

  <!-- TOP RULE -->
  <line x1="48" y1="64" x2="912" y2="64" stroke="#0E0E0E" stroke-width="1"/>

  <!-- TOP-LEFT KICKER -->
  <g transform="translate(48, 44)">
    <circle cx="6" cy="-4" r="6" fill="#D7FF3A" stroke="#0E0E0E" stroke-width="1"/>
    <text x="22" y="0" font-family="ui-monospace, 'JetBrains Mono', monospace" font-size="12" letter-spacing="3" fill="#0E0E0E">THE 1969 · TECHNICAL DOCUMENT</text>
  </g>

  <!-- TOP-RIGHT META -->
  <text x="912" y="44" text-anchor="end" font-family="ui-monospace, 'JetBrains Mono', monospace" font-size="11" letter-spacing="3" fill="#5C5C5C">UPDATED · v1.0</text>

  <!-- CORNER BRACKETS — dossier feel -->
  <g stroke="#0E0E0E" stroke-width="1" fill="none">
    <path d="M 48 110 L 48 96 L 62 96"/>
    <path d="M 912 110 L 912 96 L 898 96"/>
    <path d="M 48 444 L 48 458 L 62 458"/>
    <path d="M 912 444 L 912 458 L 898 458"/>
  </g>

  <!-- HEADLINE — sized to fit comfortably inside the 48/912 margin -->
  <text x="48" y="270"
        font-family="'Instrument Serif', Georgia, serif"
        font-style="italic" font-weight="500"
        font-size="92" fill="#0E0E0E"
        letter-spacing="-1.8">the litepaper.</text>

  <!-- VERSION / EDITION SUBHEAD -->
  <text x="48" y="316"
        font-family="'Instrument Serif', Georgia, serif"
        font-style="italic" font-weight="500"
        font-size="34" fill="#5C5C5C"
        letter-spacing="-0.5">v1.0 · post-mint edition.</text>

  <!-- ACCENT RULE -->
  <line x1="48" y1="346" x2="200" y2="346" stroke="#D7FF3A" stroke-width="6"/>

  <!-- BOTTOM RULE -->
  <line x1="48" y1="476" x2="912" y2="476" stroke="#0E0E0E" stroke-width="1"/>

  <!-- FOOTER -->
  <text x="48" y="510" font-family="ui-monospace, 'JetBrains Mono', monospace" font-size="11" letter-spacing="3" fill="#0E0E0E">@THE1969ETH</text>
  <text x="480" y="510" text-anchor="middle" font-family="ui-monospace, 'JetBrains Mono', monospace" font-size="11" letter-spacing="3" fill="#5C5C5C">THE1969.IO/LITEPAPER</text>
  <text x="912" y="510" text-anchor="end" font-family="ui-monospace, 'JetBrains Mono', monospace" font-size="11" letter-spacing="3" fill="#0E0E0E">2026</text>
</svg>
