<svg xmlns="http://www.w3.org/2000/svg" viewBox="0 0 96 96" width="2000" height="2000" shape-rendering="crispEdges" image-rendering="pixelated">
    <rect width="96" height="96" fill="#0A0A0A"/>
   <g fill="#bbb"><rect x="8" y="10" width="2" height="2"/><rect x="8" y="22" width="2" height="2"/><rect x="8" y="40" width="2" height="2"/><rect x="8" y="60" width="2" height="2"/><rect x="8" y="78" width="2" height="2"/><rect x="86" y="14" width="2" height="2"/><rect x="86" y="30" width="2" height="2"/><rect x="86" y="50" width="2" height="2"/><rect x="86" y="70" width="2" height="2"/></g>
    <rect x="10" y="72" width="76" height="24" fill="#eee"/><rect x="10" y="72" width="76" height="2" fill="#555"/><rect x="30" y="76" width="36" height="20" fill="#eee"/><rect x="44" y="74" width="8" height="8" fill="#0A0A0A"/>
    <rect x="40" y="66" width="16" height="10" fill="#bbb"/><rect x="40" y="66" width="16" height="2" fill="#777"/>
    <rect x="28" y="26" width="40" height="40" fill="#999999"/><rect x="26" y="28" width="2" height="36" fill="#0A0A0A"/><rect x="68" y="28" width="2" height="36" fill="#0A0A0A"/><rect x="28" y="26" width="40" height="2" fill="#0A0A0A"/><rect x="28" y="66" width="40" height="2" fill="#0A0A0A"/><rect x="58" y="28" width="10" height="36" fill="#777" opacity=".25"/>
    <rect x="40" y="38" width="16" height="10" fill="#0A0A0A"/><rect x="42" y="40" width="12" height="6" fill="#eee"/><rect x="46" y="42" width="4" height="4" fill="#0A0A0A"/>
    <rect x="56" y="52" width="2" height="2" fill="#0A0A0A"/>
    <rect x="46" y="46" width="4" height="8" fill="#777" opacity=".4"/><rect x="44" y="54" width="8" height="2" fill="#555"/><rect x="32" y="56" width="32" height="10" fill="#777" opacity=".35"/><rect x="34" y="58" width="2" height="2" fill="#333"/><rect x="40" y="58" width="2" height="2" fill="#333"/><rect x="46" y="58" width="2" height="2" fill="#333"/><rect x="52" y="58" width="2" height="2" fill="#333"/><rect x="58" y="58" width="2" height="2" fill="#333"/><rect x="36" y="62" width="2" height="2" fill="#333"/><rect x="42" y="62" width="2" height="2" fill="#333"/><rect x="50" y="62" width="2" height="2" fill="#333"/><rect x="56" y="62" width="2" height="2" fill="#333"/><rect x="40" y="60" width="16" height="2" fill="#0A0A0A"/>
    <rect x="28" y="22" width="4" height="8" fill="#0A0A0A"/><rect x="32" y="18" width="4" height="12" fill="#0A0A0A"/><rect x="38" y="14" width="4" height="16" fill="#0A0A0A"/><rect x="46" y="16" width="4" height="14" fill="#0A0A0A"/><rect x="54" y="14" width="4" height="16" fill="#0A0A0A"/><rect x="60" y="18" width="4" height="12" fill="#0A0A0A"/><rect x="64" y="22" width="4" height="8" fill="#0A0A0A"/>
    <rect x="26" y="20" width="44" height="12" fill="#0A0A0A"/><rect x="24" y="32" width="48" height="4" fill="#0A0A0A"/><rect x="26" y="20" width="44" height="2" fill="#222"/>
    
  </svg>