<svg xmlns="http://www.w3.org/2000/svg" viewBox="0 0 1080 1350" preserveAspectRatio="xMidYMid meet" style="max-width:100%;height:auto;display:block">
  <rect width="1080" height="1350" fill="#F9F6F0"/>
  <line x1="60" y1="110" x2="1020" y2="110" stroke="#0E0E0E" stroke-width="1"/>
  <line x1="60" y1="1240" x2="1020" y2="1240" stroke="#0E0E0E" stroke-width="1"/>
  <text x="60" y="95" font-family="ui-monospace, 'JetBrains Mono', monospace" font-size="14" letter-spacing="3" fill="#0E0E0E">THE 1969 · MONOCHROME PORTRAITS · ETHEREUM</text>
  <text x="1020" y="95" text-anchor="end" font-family="ui-monospace, 'JetBrains Mono', monospace" font-size="14" letter-spacing="3" fill="#0E0E0E">ISSUE 2026-04-29</text>
  <rect x="60" y="160" width="960" height="850" fill="#0E0E0E"/>
  <rect x="100" y="200" width="260" height="56" fill="#D7FF3A" stroke="#0E0E0E" stroke-width="2"/>
  <text x="230" y="237" text-anchor="middle" font-family="ui-monospace, 'JetBrains Mono', monospace" font-size="22" font-weight="700" letter-spacing="3" fill="#0E0E0E">6.1M FOLLOWERS</text>
  <svg x="310" y="330" width="460" height="460" viewBox="0 0 96 96" shape-rendering="crispEdges">
    <rect width="96" height="96" fill="#0A0A0A"/>
   <g fill="#bbb"><rect x="8" y="10" width="2" height="2"/><rect x="8" y="22" width="2" height="2"/><rect x="8" y="40" width="2" height="2"/><rect x="8" y="60" width="2" height="2"/><rect x="8" y="78" width="2" height="2"/><rect x="86" y="14" width="2" height="2"/><rect x="86" y="30" width="2" height="2"/><rect x="86" y="50" width="2" height="2"/><rect x="86" y="70" width="2" height="2"/></g>
    <rect x="12" y="68" width="72" height="28" fill="#222"/><rect x="12" y="68" width="72" height="2" fill="#0A0A0A"/><rect x="22" y="58" width="52" height="12" fill="#222"/><rect x="20" y="62" width="2" height="8" fill="#0A0A0A"/><rect x="74" y="62" width="2" height="8" fill="#0A0A0A"/>
    <rect x="40" y="66" width="16" height="10" fill="#bbb"/><rect x="40" y="66" width="16" height="2" fill="#777"/>
    <rect x="28" y="26" width="40" height="40" fill="#bbbbbb"/><rect x="26" y="28" width="2" height="36" fill="#0A0A0A"/><rect x="68" y="28" width="2" height="36" fill="#0A0A0A"/><rect x="28" y="26" width="40" height="2" fill="#0A0A0A"/><rect x="28" y="66" width="40" height="2" fill="#0A0A0A"/><rect x="58" y="28" width="10" height="36" fill="#777" opacity=".25"/>
    <rect x="32" y="40" width="10" height="4" fill="#0A0A0A"/><rect x="54" y="40" width="10" height="4" fill="#0A0A0A"/><rect x="34" y="42" width="6" height="2" fill="#eee"/><rect x="56" y="42" width="6" height="2" fill="#eee"/><rect x="30" y="38" width="2" height="2" fill="#bbb"/><rect x="44" y="38" width="2" height="2" fill="#bbb"/><rect x="52" y="38" width="2" height="2" fill="#bbb"/><rect x="66" y="38" width="2" height="2" fill="#bbb"/>
    <rect x="42" y="30" width="12" height="6" fill="#eee"/><rect x="42" y="30" width="12" height="2" fill="#0A0A0A"/><rect x="42" y="34" width="12" height="2" fill="#0A0A0A"/><rect x="46" y="32" width="4" height="2" fill="#0A0A0A"/><rect x="40" y="30" width="2" height="2" fill="#0A0A0A"/><rect x="54" y="30" width="2" height="2" fill="#0A0A0A"/>
    <rect x="46" y="46" width="4" height="8" fill="#777" opacity=".4"/><rect x="34" y="52" width="28" height="4" fill="#eee"/><rect x="30" y="56" width="4" height="12" fill="#eee"/><rect x="62" y="56" width="4" height="12" fill="#eee"/><rect x="34" y="60" width="28" height="8" fill="#eee"/><rect x="36" y="68" width="24" height="2" fill="#eee"/><rect x="40" y="70" width="16" height="2" fill="#bbb"/><rect x="42" y="58" width="12" height="2" fill="#555"/>
    <rect x="44" y="6" width="8" height="8" fill="#0A0A0A"/><rect x="38" y="10" width="20" height="8" fill="#0A0A0A"/><rect x="32" y="16" width="32" height="8" fill="#0A0A0A"/><rect x="28" y="22" width="40" height="8" fill="#0A0A0A"/><rect x="40" y="14" width="16" height="6" fill="#555"/><rect x="44" y="20" width="8" height="4" fill="#bbb"/>
    <rect x="24" y="20" width="4" height="12" fill="#777"/><rect x="34" y="14" width="4" height="18" fill="#777"/><rect x="46" y="10" width="4" height="22" fill="#777"/><rect x="58" y="14" width="4" height="18" fill="#777"/><rect x="68" y="20" width="4" height="12" fill="#777"/><rect x="24" y="28" width="48" height="4" fill="#0A0A0A"/><rect x="46" y="6" width="4" height="4" fill="#eee"/><rect x="34" y="10" width="4" height="4" fill="#eee"/><rect x="58" y="10" width="4" height="4" fill="#eee"/>
    
  </svg>
  <text x="540" y="1100" text-anchor="middle" font-family="'Instrument Serif', Georgia, serif" font-size="82" fill="#0E0E0E" letter-spacing="-1">@VitalikButerin</text>
  <text x="540" y="1150" text-anchor="middle" font-family="'Instrument Serif', Georgia, serif" font-style="italic" font-size="32" fill="#5C5C5C">just built their bust.</text>
  <text x="60" y="1290" font-family="ui-monospace, 'JetBrains Mono', monospace" font-size="13" letter-spacing="3" fill="#0E0E0E">the1969.io</text>
  <text x="1020" y="1290" text-anchor="end" font-family="ui-monospace, 'JetBrains Mono', monospace" font-size="13" letter-spacing="3" fill="#0E0E0E">@the1969eth</text>
</svg>